<svg width="15" height="14" viewBox="0 0 15 14" fill="none" xmlns="http://www.w3.org/2000/svg">
<path fill-rule="evenodd" clip-rule="evenodd" d="M7.02194 12.845L6.00376 11.921C2.38746 8.652 0 6.489 0 3.85C0 1.687 1.69931 0 3.86207 0C5.08389 0 6.25655 0.567 7.02194 1.456C7.78734 0.567 8.96 0 10.1818 0C12.3446 0 14.0439 1.687 14.0439 3.85C14.0439 6.489 11.6564 8.652 8.04013 11.921L7.02194 12.845Z" fill="#FF4E4E"/>
<mask id="mask0_0_674" style="mask-type:alpha" maskUnits="userSpaceOnUse" x="0" y="0" width="15" height="13">
<path fill-rule="evenodd" clip-rule="evenodd" d="M7.02194 12.845L6.00376 11.921C2.38746 8.652 0 6.489 0 3.85C0 1.687 1.69931 0 3.86207 0C5.08389 0 6.25655 0.567 7.02194 1.456C7.78734 0.567 8.96 0 10.1818 0C12.3446 0 14.0439 1.687 14.0439 3.85C14.0439 6.489 11.6564 8.652 8.04013 11.921L7.02194 12.845Z" fill="white"/>
</mask>
<g mask="url(#mask0_0_674)">
</g>
</svg>
